<?xml version="1.0" encoding="UTF-8"?>
<svg id="Layer_1" data-name="Layer 1" xmlns="http://www.w3.org/2000/svg" viewBox="0 0 144 144">
  <path d="M20.95,98.49c-9.63-5.5-15.19-15.07-15.19-26.52s5.55-20.96,15.19-26.46c.45-.28.85-.4,1.3-.4.79,0,1.42.57,1.42,1.42,0,.68-.51,1.13-1.13,1.53-8.61,5.27-13.31,13.6-13.31,23.91s4.71,18.7,13.31,23.97c.62.4,1.13.85,1.13,1.53,0,.85-.62,1.42-1.42,1.42-.45,0-.85-.11-1.3-.39Z" style="fill: #000; stroke-width: 0px;"/>
  <path d="M18.13,72c0-12.01,8.16-19.94,19.21-19.94s19.21,7.93,19.21,19.94-8.16,19.94-19.21,19.94-19.21-7.93-19.21-19.94ZM37.34,89.62c7.08,0,11.9-4.93,11.9-17.62s-4.82-17.62-11.9-17.62-11.84,4.93-11.84,17.62,4.76,17.62,11.84,17.62Z" style="fill: #000; stroke-width: 0px;"/>
  <path d="M65.58,74.38c0-7.93,12.06-8.16,12.06-14.9,0-3-2.38-5.1-6.29-5.1-3.23,0-5.61,1.53-5.61,3.28,0,1.47,2.1,1.87,2.1,4.02,0,1.81-1.36,3.06-3.34,3.06-2.09,0-3.46-1.47-3.46-3.8,0-4.93,4.87-8.89,11.05-8.89,6.69,0,11.16,3.51,11.16,8.44,0,9.23-12.69,9.46-12.69,14.33,0,1.7,1.19,2.83,3,2.83,1.48,0,2.44-.57,3.4-1.13.4-.28.62-.45,1.02-.45.45,0,.91.4.91.96,0,.45-.29.74-.74,1.19-1.13.96-3.23,2.32-6.23,2.32-3.8,0-6.34-2.55-6.34-6.18ZM71.98,84.52c2.15,0,3.74,1.47,3.74,3.74s-1.59,3.68-3.74,3.68-3.79-1.42-3.79-3.68,1.58-3.74,3.79-3.74Z" style="fill: #000; stroke-width: 0px;"/>
  <path d="M87.4,72c0-12.01,8.16-19.94,19.21-19.94s19.21,7.93,19.21,19.94-8.16,19.94-19.21,19.94-19.21-7.93-19.21-19.94ZM106.61,89.62c7.08,0,11.9-4.93,11.9-17.62s-4.82-17.62-11.9-17.62-11.84,4.93-11.84,17.62,4.76,17.62,11.84,17.62Z" style="fill: #000; stroke-width: 0px;"/>
  <path d="M120.63,97.47c0-.68.51-1.13,1.13-1.53,8.61-5.27,13.31-13.65,13.31-23.97s-4.71-18.64-13.31-23.91c-.62-.4-1.13-.85-1.13-1.53,0-.85.62-1.42,1.42-1.42.45,0,.85.11,1.31.4,9.63,5.49,15.18,15.01,15.18,26.46s-5.55,21.02-15.18,26.52c-.46.28-.85.39-1.31.39-.79,0-1.42-.57-1.42-1.42Z" style="fill: #000; stroke-width: 0px;"/>
</svg>