<?xml version="1.0" encoding="UTF-8"?>
<svg id="Layer_1" data-name="Layer 1" xmlns="http://www.w3.org/2000/svg" viewBox="0 0 144 144">
  <path d="M26.93,52.56c.34.21.64.3.98.3.6,0,1.06-.42,1.06-1.06,0-.51-.38-.85-.85-1.15-6.47-3.96-10.01-10.26-10.01-18.01s3.54-14.01,10.01-17.97c.47-.3.85-.64.85-1.15,0-.64-.47-1.06-1.06-1.06-.34,0-.64.08-.98.3-7.24,4.13-11.42,11.29-11.42,19.89s4.18,15.8,11.42,19.93Z" style="fill: #000; stroke-width: 0px;"/>
  <path d="M60.54,28.5c0-9.03-6.13-14.99-14.44-14.99s-14.44,5.96-14.44,14.99,6.13,14.99,14.44,14.99,14.44-5.96,14.44-14.99ZM37.2,28.5c0-9.54,3.58-13.24,8.9-13.24s8.94,3.71,8.94,13.24-3.62,13.24-8.94,13.24-8.9-3.71-8.9-13.24Z" style="fill: #000; stroke-width: 0px;"/>
  <path d="M66.52,23.05c1.49,0,2.51-.94,2.51-2.3,0-1.62-1.58-1.92-1.58-3.02,0-1.32,1.79-2.47,4.22-2.47,2.94,0,4.73,1.58,4.73,3.83,0,5.07-9.07,5.24-9.07,11.2,0,2.73,1.91,4.64,4.77,4.64,2.26,0,3.83-1.02,4.68-1.75.34-.34.55-.55.55-.89,0-.43-.34-.72-.68-.72-.3,0-.47.13-.77.34-.72.42-1.45.85-2.56.85-1.36,0-2.26-.85-2.26-2.13,0-3.66,9.54-3.83,9.54-10.77,0-3.71-3.36-6.35-8.39-6.35-4.64,0-8.31,2.98-8.31,6.69,0,1.75,1.02,2.85,2.6,2.85Z" style="fill: #000; stroke-width: 0px;"/>
  <path d="M69.29,40.72c0,1.7,1.19,2.77,2.85,2.77s2.81-1.06,2.81-2.77-1.19-2.81-2.81-2.81-2.85,1.11-2.85,2.81Z" style="fill: #000; stroke-width: 0px;"/>
  <path d="M98.17,13.51c-8.31,0-14.44,5.96-14.44,14.99s6.13,14.99,14.44,14.99,14.44-5.96,14.44-14.99-6.13-14.99-14.44-14.99ZM98.17,41.75c-5.32,0-8.9-3.71-8.9-13.24s3.58-13.24,8.9-13.24,8.94,3.71,8.94,13.24-3.62,13.24-8.94,13.24Z" style="fill: #000; stroke-width: 0px;"/>
  <path d="M116.16,50.65c-.47.3-.85.64-.85,1.15,0,.64.47,1.06,1.06,1.06.34,0,.64-.08.98-.3,7.24-4.13,11.41-11.33,11.41-19.93s-4.18-15.76-11.41-19.89c-.34-.21-.64-.3-.98-.3-.6,0-1.06.42-1.06,1.06,0,.51.38.85.85,1.15,6.47,3.96,10.01,10.22,10.01,17.97s-3.54,14.05-10.01,18.01Z" style="fill: #000; stroke-width: 0px;"/>
  <path d="M30.65,74.66h-7.37v-7.45c0-.34-.17-.47-.47-.47h-1.79c-.3,0-.47.13-.47.47v7.45h-7.37c-.34,0-.47.17-.47.47v1.62c0,.3.13.47.47.47h7.37v7.45c0,.34.17.47.47.47h1.79c.3,0,.47-.13.47-.47v-7.45h7.37c.34,0,.47-.17.47-.47v-1.62c0-.3-.13-.47-.47-.47Z" style="fill: #000; stroke-width: 0px;"/>
  <path d="M48,75.04h-10.52c-.34,0-.47.17-.47.47v2.56c0,.3.12.47.47.47h10.52c.34,0,.47-.17.47-.47v-2.56c0-.3-.13-.47-.47-.47Z" style="fill: #000; stroke-width: 0px;"/>
  <path d="M65.09,57.54h-1.79c-.34,0-.47.08-.55.38l-9.88,29.13c-.09.25,0,.47.3.47h1.79c.34,0,.47-.08.55-.38l9.88-29.13c.08-.25,0-.47-.3-.47Z" style="fill: #000; stroke-width: 0px;"/>
  <path d="M73.4,57.46c0-.3-.12-.47-.47-.47h-1.57c-.34,0-.47.17-.47.47v38.46c0,.3.13.47.47.47h1.57c.34,0,.47-.17.47-.47v-38.46Z" style="fill: #000; stroke-width: 0px;"/>
  <path d="M91.42,87.06l-9.88-29.13c-.09-.3-.22-.38-.55-.38h-1.79c-.3,0-.38.21-.3.47l9.88,29.13c.08.3.21.38.55.38h1.79c.3,0,.38-.21.3-.47Z" style="fill: #000; stroke-width: 0px;"/>
  <path d="M106.8,75.04h-10.52c-.34,0-.47.17-.47.47v2.56c0,.3.12.47.47.47h10.52c.34,0,.47-.17.47-.47v-2.56c0-.3-.13-.47-.47-.47Z" style="fill: #000; stroke-width: 0px;"/>
  <path d="M131.09,74.66h-7.37v-7.45c0-.34-.17-.47-.47-.47h-1.79c-.3,0-.47.13-.47.47v7.45h-7.37c-.34,0-.47.17-.47.47v1.62c0,.3.13.47.47.47h7.37v7.45c0,.34.17.47.47.47h1.79c.3,0,.47-.13.47-.47v-7.45h7.37c.34,0,.47-.17.47-.47v-1.62c0-.3-.13-.47-.47-.47Z" style="fill: #000; stroke-width: 0px;"/>
  <path d="M40.74,125.81c-1.7,0-2.94,1.15-2.94,2.9s1.23,2.85,2.94,2.85,2.9-1.11,2.9-2.85-1.23-2.9-2.9-2.9Z" style="fill: #000; stroke-width: 0px;"/>
  <path d="M51.69,125.81c-1.7,0-2.94,1.15-2.94,2.9s1.23,2.85,2.94,2.85,2.9-1.11,2.9-2.85-1.23-2.9-2.9-2.9Z" style="fill: #000; stroke-width: 0px;"/>
  <path d="M70.6,101.57h-1.79c-.34,0-.47.08-.55.38l-9.88,29.13c-.09.25,0,.47.3.47h1.79c.34,0,.47-.08.55-.38l9.88-29.13c.08-.25,0-.47-.3-.47Z" style="fill: #000; stroke-width: 0px;"/>
  <path d="M76.02,101.96c-.08-.3-.21-.38-.55-.38h-1.79c-.3,0-.38.21-.3.47l9.88,29.13c.09.3.22.38.55.38h1.79c.3,0,.38-.21.3-.47l-9.88-29.13Z" style="fill: #000; stroke-width: 0px;"/>
  <path d="M92.63,125.81c-1.7,0-2.94,1.15-2.94,2.9s1.23,2.85,2.94,2.85,2.9-1.11,2.9-2.85-1.23-2.9-2.9-2.9Z" style="fill: #000; stroke-width: 0px;"/>
  <path d="M103.59,125.81c-1.7,0-2.94,1.15-2.94,2.9s1.23,2.85,2.94,2.85,2.9-1.11,2.9-2.85-1.23-2.9-2.9-2.9Z" style="fill: #000; stroke-width: 0px;"/>
</svg>